# Blender 4.3.0
# www.blender.org
mtllib 3.mtl
o Plane
v 19.848377 20.150482 9.999998
v 20.150486 -19.848377 9.999993
v 19.848373 20.150486 -10.000002
v 20.150482 -19.848373 -10.000007
vn 1.0000 0.0076 -0.0000
vt 0.000000 0.000000
vt 1.000000 0.000000
vt 1.000000 1.000000
vt 0.000000 1.000000
s 1
f 1/1/1 2/2/1 4/3/1 3/4/1
o Plane.001
v 19.848377 20.150482 9.999998
v 20.150486 -19.848377 9.999993
v -0.151053 19.999428 10.000003
v 0.151057 -19.999432 9.999997
vn -0.0000 -0.0000 -1.0000
vt 0.000000 0.000000
vt 1.000000 0.000000
vt 1.000000 1.000000
vt 0.000000 1.000000
s 1
f 5/5/2 6/6/2 8/7/2 7/8/2
o Plane.002
v 19.848373 20.150486 -10.000002
v 20.150482 -19.848373 -10.000007
v -0.151057 19.999432 -9.999997
v 0.151053 -19.999428 -10.000003
vn -0.0000 -0.0000 -1.0000
vt 0.000000 0.000000
vt 1.000000 0.000000
vt 1.000000 1.000000
vt 0.000000 1.000000
s 1
f 9/9/3 10/10/3 12/11/3 11/12/3
o Plane.003
v 0.000178 20.000000 10.000000
v 0.000177 -20.000000 10.000000
v -0.000177 20.000000 -10.000000
v -0.000178 -20.000000 -10.000000
vn 1.0000 -0.0000 -0.0000
vt 0.000000 0.000000
vt 1.000000 0.000000
vt 1.000000 1.000000
vt 0.000000 1.000000
s 1
f 13/13/4 14/14/4 16/15/4 15/16/4
